
<svg width="40px" height="40px" viewBox="0 0 40 40" version="1.1" xmlns="http://www.w3.org/2000/svg" xmlns:xlink="http://www.w3.org/1999/xlink">
    <!-- Generator: Sketch 46.2 (44496) - http://www.bohemiancoding.com/sketch -->
    <desc>Created with Sketch.</desc>
    <defs></defs>
    <g id="Page-1" stroke="none" stroke-width="1" fill="none" fill-rule="evenodd">
        <g id="02_D_Navigatie" transform="translate(-1243.000000, -823.000000)">
            <g id="Group" transform="translate(1140.000000, 0.000000)">
                <g id="De-laatste-artikelen-+-Rectangle-3-Copy-7-+-INSCHRIJVEN-+-Volg-ons-+-Group" transform="translate(50.000000, 794.000000)">
                    <g id="Volg-ons-+-Group">
                        <g id="Group" transform="translate(0.000000, 29.000000)">
                            <g id="Rectangle-3-Copy-4-+-Imported-Layers" transform="translate(53.000000, 0.000000)">
                                <rect id="Rectangle-3-Copy-4" fill="#37559D" x="0" y="0" width="40" height="40"></rect>
                                <path d="M18.477814,16.6816923 L18.477814,18.588 L17,18.588 L17,20.9192308 L18.477814,20.9192308 L18.477814,27.8461538 L21.5135349,27.8461538 L21.5135349,20.9192308 L23.5506977,20.9192308 C23.5506977,20.9192308 23.7414884,19.8015385 23.8337907,18.5792308 L21.525093,18.5792308 L21.525093,16.9853846 C21.525093,16.7473846 21.8560465,16.4269231 22.1832558,16.4269231 L23.8372093,16.4269231 L23.8372093,14 L21.5884186,14 C18.4027674,14 18.477814,16.3333846 18.477814,16.6816923" id="Imported-Layers" fill="#FFFFFF"></path>
                            </g>
                        </g>
                    </g>
                </g>
            </g>
        </g>
    </g>
</svg>